<svg width="750" height="126" viewBox="0 0 750 126" fill="none" xmlns="http://www.w3.org/2000/svg">
<path d="M0 30.2402C0.367359 30.2128 0.481914 30.5368 0.659669 30.7398C2.44511 32.8086 3.59459 35.2444 4.73617 37.6841C5.8106 39.9832 6.84158 42.3253 8.61912 44.199C11.5935 47.3217 14.7655 50.2025 18.9802 51.6585C20.7969 52.2893 22.7004 52.6421 24.6249 52.7046C23.7612 51.6797 22.8111 50.7291 21.7848 49.8629C19.5925 47.9424 17.1671 46.3185 14.8682 44.5308C12.3954 42.6063 10.1281 40.4985 8.75342 37.6216C7.58558 35.0659 6.90786 32.3181 6.75467 29.518C6.47422 25.9268 6.66382 22.3161 6.35966 18.7288C6.31621 18.2253 6.26091 17.7295 6.20166 17.1362C6.97313 17.6229 7.62842 18.2695 8.1222 19.0311C8.61599 19.7926 8.93648 20.6511 9.06153 21.5471C9.40124 23.4052 9.31038 25.3179 9.737 27.1681C11.5738 35.1039 15.7569 41.3377 23.1673 45.2256C23.9254 45.6106 24.7191 45.923 25.5374 46.1585C25.4477 45.4509 25.2082 44.7699 24.8343 44.1599C24.1549 42.9147 23.1199 41.9467 22.1996 40.881C18.9012 37.0751 15.7451 33.16 14.1572 28.3001C12.7707 24.0571 12.7746 19.8101 14.6272 15.6724C15.6305 13.4357 17.3054 11.687 19.1422 10.0905C20.7222 8.68912 22.4366 7.39707 24.1233 6.10502L24.226 6.23384C23.3174 8.40026 22.3418 10.5276 21.5794 12.7721C20.2798 16.578 19.3634 20.4464 19.395 24.5021C19.4463 30.9428 23.0883 36.3452 29.0411 38.6795C29.0688 38.4179 28.8831 38.2891 28.7725 38.1134C26.4973 34.6589 24.5222 31.0638 23.3925 27.0666C20.8289 18.0145 25.1068 10.3754 31.4309 5.86691C34.8241 3.44286 38.7149 2.09616 42.7243 1.011C44.1068 0.644073 45.4893 0.335698 46.8995 0L46.9746 0.163948L46.4018 0.472319C42.8704 2.37331 39.2916 4.18842 36.0723 6.60076C32.3711 9.37613 29.4282 12.7409 28.0852 17.2182C26.4538 22.683 27.0542 27.8473 30.3565 32.6057C31.0611 33.5579 31.8546 34.4427 32.7266 35.2483C32.8635 35.427 33.0544 35.5581 33.2717 35.6226C33.4889 35.6872 33.7213 35.6819 33.9353 35.6074C34.1899 35.5232 34.4143 35.3676 34.5812 35.1598C34.7481 34.9519 34.8503 34.7006 34.8754 34.4364C34.9127 33.7249 34.7941 33.0139 34.5278 32.3519C33.7378 29.9045 32.6752 27.5468 32.0946 25.029C30.7081 19.0333 32.8372 13.4826 37.9249 9.95384C40.3305 8.28706 42.8665 6.88572 45.8251 6.34313C48.5694 5.83158 51.4084 6.30792 53.828 7.68593C54.6829 8.13162 55.5017 8.64189 56.2771 9.21218C58.3864 10.8243 58.8051 12.8151 57.5095 15.1611C56.9288 14.478 56.3798 13.7714 55.7754 13.1235C54.2546 11.4957 52.5284 10.1373 50.2729 9.70402C46.7455 9.02872 43.6446 10.1256 41.2074 12.5653C37.0914 16.6834 36.175 21.6955 37.7985 27.1642C38.8611 30.7476 40.9902 33.7533 43.3879 36.5833C45.6552 39.2572 48.0253 41.8491 50.3875 44.441C51.5725 45.733 52.6667 47.0914 53.1051 48.8246C53.4626 50.3323 53.2956 51.915 52.6311 53.3174C52.2677 54.1567 52.4297 54.7578 53.2197 55.195C56.1586 56.8267 58.6748 57.2795 61.9297 54.8905C63.1463 54.0006 63.0791 53.2199 61.7875 52.4392C61.6531 52.3572 61.5149 52.283 61.3924 52.2089C60.2706 51.6272 60.1877 51.3969 60.9421 50.3391C62.2183 48.5925 63.3015 46.716 64.1733 44.7415C66.0536 40.3501 66.5197 35.7362 66.3538 31.0326C66.3479 30.1687 66.0849 29.3257 65.5974 28.6086C65.1099 27.8915 64.4195 27.3322 63.6124 27.0003C61.8783 26.1884 60.0297 25.7199 58.2008 25.1969L57.7465 25.0603C63.8573 21.9687 69.9681 19.5134 77.0072 20.3019C76.6714 20.6142 76.3752 20.8679 76.1066 21.1451C74.7438 22.5425 74.254 24.2679 74.25 26.1493C74.25 28.6163 74.3369 31.0833 74.3251 33.5659C74.3053 37.2117 74.1513 40.8615 74.2461 44.4956C74.3014 46.6113 74.8504 48.5591 76.2685 50.2298C76.9953 51.0847 76.8689 51.6194 75.9209 52.2557C75.3028 52.623 74.7525 53.0916 74.2935 53.6414C73.8392 54.2504 73.8985 54.8125 74.5384 55.156C76.2685 56.0421 78.0935 56.6979 80.0685 56.4949C82.6874 56.2333 83.9791 54.1528 83.7184 51.7639C83.5809 50.6605 83.6805 49.5409 84.0106 48.4782C84.3407 47.4155 84.894 46.4335 85.6342 45.5964C88.4783 42.2043 91.4804 38.9605 94.4627 35.6816C96.6471 33.2849 98.4128 30.6656 99.104 27.4843C100.186 22.4762 99.2502 17.7686 96.6787 13.385C95.1855 10.836 92.772 9.6845 89.8213 9.58692C88.4954 9.50407 87.1642 9.56428 85.8515 9.76647C82.7783 10.3286 81.0402 12.2452 80.2858 15.1494C80.2621 15.2352 80.2423 15.3172 80.2186 15.4109C79.9342 15.4109 79.9303 15.1533 79.8513 15.0205C77.8762 11.2693 80.0527 6.95988 84.307 6.56173C90.003 6.03086 95.3988 7.04576 100.02 10.6213C103.465 13.2835 105.061 16.9215 105.136 21.1958C105.254 24.7889 104.418 28.35 102.71 31.5244C102.445 31.9636 102.26 32.4461 102.165 32.9492C102.075 33.2751 102.107 33.6226 102.257 33.9265C102.407 34.2305 102.663 34.47 102.979 34.6003C103.817 35.0492 104.496 34.9907 105.092 34.4637C105.514 34.0592 105.834 33.5635 106.029 33.0155C107.214 29.9981 108.47 27.0003 108.873 23.7487C109.548 18.3424 108.699 13.3303 104.923 9.10288C102.762 6.68664 100.001 5.19942 96.9157 4.2743C95.366 3.76016 93.9677 2.87823 92.8431 1.70582C96.5602 2.55677 100.238 3.50922 103.674 5.19552C105.843 6.26116 107.877 7.53759 109.469 9.37222C114.687 15.3289 115.868 22.0077 112.925 29.3502C111.657 32.5081 109.765 35.3186 107.692 38.012C107.474 38.293 107.257 38.5702 106.977 38.9371C109.02 38.5945 110.919 37.6707 112.44 36.2788C116.477 32.8173 118.998 27.9439 119.475 22.683C119.731 20.0833 118.898 17.6827 117.764 15.3797C116.496 12.7995 114.845 10.4379 113.399 7.96307C113.105 7.5453 112.867 7.09124 112.692 6.61247C112.721 6.58574 112.747 6.55704 112.771 6.5266C116.05 8.38465 118.957 10.6682 121.067 13.8105C124.16 18.4009 124.452 23.3427 122.785 28.4836C121.683 31.8952 119.72 34.8384 117.543 37.6567C115.706 40.0457 113.735 42.3409 111.973 44.7806C111.796 45.0265 111.626 45.2724 111.369 45.6315C113.24 45.1374 115.022 44.362 116.654 43.3324C120.729 40.7536 123.995 37.104 126.087 32.793C127.047 30.8413 127.272 28.6593 127.557 26.5241C127.928 23.7916 128.244 21.0085 129.433 18.4439L129.694 17.9052C129.737 17.835 129.785 17.7673 129.836 17.7022C130.469 20.0128 130.846 22.3843 130.962 24.7753C131.357 33.0936 127.774 39.6319 121.671 45.0382C119.037 47.3302 116.188 49.3692 113.162 51.1276C112.878 51.2955 112.598 51.4711 112.203 51.7131C113.731 51.9971 115.303 51.9451 116.808 51.5609C119.882 50.8348 122.362 49.1017 124.578 46.9665C128.291 43.3948 131.048 39.1244 133.628 34.733C134.335 33.5308 135.003 32.309 135.749 30.9857C136.134 33.0264 136.076 35.1245 135.579 37.1415C134.098 43.5744 130.48 48.5552 125.017 52.2908C122.094 54.2894 118.953 55.9367 115.931 57.7986C114.983 58.3881 114.055 59.0087 112.977 59.7113C114.431 59.8551 115.898 59.7628 117.322 59.4381C120.119 58.8448 122.651 57.5917 125.194 56.3661C127.798 55.113 130.409 53.8717 133.28 53.3057C133.652 53.2316 134.027 53.1691 134.489 53.0871C134.169 53.5771 133.782 54.021 133.34 54.4065C130.081 57.6815 126.135 59.8909 121.884 61.6396C118.507 63.0332 115.015 64.1144 111.578 65.344C111.393 65.3797 111.221 65.4678 111.085 65.5977C113.479 66.2131 115.947 66.502 118.42 66.4565C120.849 66.4565 123.283 66.3667 125.712 66.3355C127.009 66.3064 128.306 66.3416 129.599 66.4409C128.362 67.6624 126.848 68.575 125.183 69.1031C122.813 69.9189 120.304 70.0828 117.82 70.3131C116.54 70.3965 115.269 70.5726 114.016 70.8401C113.224 71.0213 112.403 71.0452 111.602 70.9104C111.425 70.8849 111.247 70.8693 111.069 70.8635C110.16 70.8167 109.621 71.1068 109.449 71.734C109.311 72.1387 109.32 72.5788 109.477 72.9771C109.634 73.3754 109.927 73.7064 110.307 73.9121C110.776 74.1323 111.282 74.2646 111.8 74.3025C116.417 74.7319 120.956 75.6765 125.522 76.4221C125.818 76.4195 126.111 76.4907 126.372 76.629C125.113 77.3962 123.722 77.9256 122.267 78.1903C119.712 78.6666 117.207 78.2372 114.707 77.7492C112.554 77.3277 110.362 77.0193 108.387 76.0005C108.242 75.9396 108.091 75.8926 107.936 75.86C106.834 75.5672 106.175 75.8287 105.815 76.6992C105.373 77.757 105.645 78.6275 106.605 79.1623C107.62 79.7361 108.794 79.8103 109.868 80.1811C112.491 81.0867 115.177 81.8401 117.677 83.0619C119.317 83.841 120.703 85.058 121.679 86.575C119.481 86.8369 117.252 86.533 115.209 85.6928C112.049 84.4047 108.782 83.3117 105.878 81.4497C105.533 81.2399 105.167 81.0672 104.784 80.9345C103.943 80.6222 103.354 80.7783 102.936 81.3873C102.676 81.6999 102.535 82.0916 102.535 82.4959C102.535 82.9001 102.676 83.2918 102.936 83.6044C103.437 84.1159 104.043 84.5152 104.713 84.7755C108.754 86.7272 112.613 89.0068 116.524 91.1459C117.181 91.4936 117.774 91.9489 118.278 92.4926C118.854 93.1519 119.214 93.9688 119.309 94.8347C119.396 95.4163 119.147 95.4398 118.689 95.3734C115.93 94.9571 113.253 94.1264 110.749 92.9103C107.982 91.5307 105.339 89.9205 102.849 88.0973C102.213 87.6484 101.691 87.0473 101.091 86.5359C100.175 85.7553 99.4912 85.7279 98.8157 86.3525C98.0257 87.0785 97.9585 87.9139 98.6142 88.8624C99.0666 89.4458 99.5983 89.9647 100.194 90.4043C103.291 92.9142 106.495 95.2914 109.536 97.8716C112.791 100.639 115.402 103.938 117.883 107.361C117.92 107.437 117.948 107.517 117.966 107.599C113.621 107.06 109.619 105.823 106.376 102.833C103.512 100.194 101.273 97.0363 99.0645 93.8549C96.4891 90.1584 94.0677 86.3564 91.3105 82.7847C88.6797 79.3731 85.6421 76.4104 81.6999 74.4703C81.38 74.3103 81.0639 74.1385 80.7321 74.0097C80.3972 73.8417 80.0138 73.7931 79.6468 73.872C79.2798 73.951 78.9516 74.1526 78.7176 74.443C78.2278 75.0246 78.1922 75.6531 78.7176 76.3947C79.2429 77.1364 79.9026 77.9015 80.4635 78.6822C82.64 81.701 84.0268 85.205 84.5005 88.8819C85.2115 94.2687 87.6962 98.7538 90.9589 102.934C92.4126 104.8 93.8583 106.674 95.1579 108.653C95.3622 108.99 95.6672 109.256 96.0307 109.415C96.3943 109.573 96.7987 109.617 97.1882 109.539C99.3924 109.223 101.608 109.024 103.828 108.895C105.797 108.742 107.758 109.265 109.382 110.374C109.473 110.437 109.584 110.484 109.592 110.655C108.593 111.201 107.446 111.424 106.313 111.292C105.443 111.181 104.563 111.168 103.69 111.253C103.224 111.335 102.588 111.335 102.446 111.846C102.304 112.357 102.71 112.818 103.149 113.119C103.587 113.419 104.176 113.751 104.697 114.059C105.961 114.809 106.277 115.515 106.029 117.03C105.294 116.476 104.591 115.937 103.876 115.418C103.161 114.899 102.458 114.403 101.735 113.911C101.439 113.71 101.125 113.535 100.799 113.388C99.8309 112.966 99.108 113.087 98.6024 113.731C98.0968 114.375 98.2074 114.938 98.8789 115.785C99.349 116.378 99.8783 116.928 100.36 117.518C101.423 118.822 101.431 120.25 100.85 121.866C100.137 120.842 99.4916 119.772 98.9184 118.665C98.1781 117.235 97.3524 115.849 96.4456 114.516C94.0756 111.202 91.3105 110.292 87.3999 111.526L86.2741 111.877C86.4558 111.218 86.6059 110.628 86.7758 110.043C86.8627 109.734 87.1708 109.777 87.396 109.746C88.1337 109.672 88.8617 109.523 89.5685 109.301C91.3065 108.712 91.7806 107.763 90.9708 106.124C89.8354 103.828 88.5296 101.62 87.0641 99.515C84.5993 95.9628 81.5854 92.8791 78.6307 89.7251C75.996 86.9185 73.4126 84.0729 71.2124 80.915C71.1505 80.8363 71.0831 80.762 71.0109 80.6925C69.901 82.7613 69.8654 84.795 70.9675 86.817C71.3625 87.5977 71.876 88.2964 72.3579 89.0185C73.5745 90.8337 74.8109 92.6332 76.0315 94.4444C76.3018 94.8289 76.506 95.2549 76.6359 95.7052C76.7596 96.1018 76.7411 96.5285 76.5835 96.9132C76.4259 97.2979 76.1389 97.6171 75.7708 97.817C75.1309 98.2073 74.5423 98.0746 73.8353 97.4266C73.1282 96.7786 72.5475 95.994 71.7812 95.4007C71.086 94.8581 70.9912 94.8816 70.5567 95.6662C70.3531 96.0259 70.2299 96.4245 70.1951 96.8352C70.1604 97.2459 70.215 97.6591 70.3552 98.0473C71.2005 100.499 74.4278 102.731 77.0388 102.685C78.2772 102.625 79.4801 102.256 80.5346 101.611L81.3444 101.135C81.2535 101.502 81.1903 101.806 81.1074 102.099C80.7321 103.368 80.2028 103.793 78.8795 103.957C76.9045 104.199 74.9294 103.977 72.9544 103.957C72.3066 103.957 71.6548 103.895 70.8845 103.856C71.5529 104.928 72.3752 105.898 73.3257 106.736C75.0005 108.263 76.9005 109.508 78.6623 110.925C80.6966 112.564 82.4149 114.438 83.3036 116.94C83.3392 117.042 83.3629 117.147 83.4143 117.33C82.0559 117.285 80.7334 116.887 79.5787 116.179C78.1488 115.324 77.0704 114.098 75.996 112.869C75.0337 111.841 74.1341 110.758 73.302 109.625C73.1712 109.444 73.0201 109.277 72.8517 109.129C72.2355 108.536 71.6667 108.434 71.0346 108.805C70.6783 108.974 70.396 109.265 70.2398 109.624C70.0837 109.983 70.0644 110.385 70.1854 110.757C70.2661 111.011 70.3803 111.254 70.5251 111.479C71.2594 112.649 72.0572 113.779 72.9149 114.863C74.0986 116.319 75.0498 117.944 75.7353 119.684C76.4937 121.456 75.9209 122.296 73.9735 122.362C73.7718 122.391 73.5669 122.391 73.3652 122.362C72.2473 122.057 71.5798 122.479 71.0623 123.494C70.5494 124.612 69.6383 125.504 68.5026 126H68.1076C67.3092 125.686 66.666 125.077 66.3143 124.302C65.9506 123.614 65.6556 122.892 65.4334 122.147C65.3934 121.988 65.3146 121.84 65.2037 121.718C65.0929 121.595 64.9534 121.502 64.7974 121.445C63.9931 121.102 63.2266 120.678 62.5103 120.18C61.5228 119.469 61.2897 118.72 61.7954 117.631C62.0808 117.077 62.4027 116.543 62.7592 116.031C63.723 114.543 64.9989 113.298 66.1523 111.975C66.6566 111.435 67.0652 110.814 67.361 110.14C67.5275 109.82 67.5724 109.451 67.4876 109.101C67.4028 108.751 67.194 108.443 66.8989 108.231C66.6205 107.965 66.2556 107.804 65.8689 107.778C65.4822 107.751 65.0985 107.861 64.7856 108.087C64.2341 108.437 63.7664 108.902 63.4149 109.449C62.0087 111.612 60.085 113.29 58.1968 115.004C56.6228 116.525 54.5755 117.477 52.3862 117.705C52.5403 117.44 52.6588 117.229 52.7812 117.026C53.8335 115.338 55.1252 113.808 56.6168 112.482C58.9868 110.304 61.7006 108.505 64.0193 106.264C64.8869 105.46 65.6679 104.569 66.3498 103.606C65.7485 103.511 65.1349 103.52 64.5367 103.633C63.1147 103.906 61.8151 104.539 60.4405 104.949C59.5083 105.226 58.5681 105.448 57.5885 105.206C56.0085 104.816 54.385 102.681 54.1954 100.706C54.4828 100.767 54.7527 100.891 54.9854 101.069C56.601 101.939 58.2758 102.657 60.1561 102.575C62.9962 102.45 64.9357 100.83 66.4288 98.6055C66.7038 98.1939 66.8711 97.7214 66.9159 97.2302C66.9607 96.7391 66.8816 96.2446 66.6856 95.7911C66.6463 95.6311 66.566 95.4838 66.4525 95.3633C66.339 95.2429 66.1961 95.1532 66.0375 95.1031C65.8788 95.0529 65.7098 95.0439 65.5466 95.0769C65.3834 95.1098 65.2315 95.1837 65.1055 95.2914C64.8016 95.5216 64.5234 95.7833 64.276 96.0721C63.881 96.4625 63.5571 96.927 63.1621 97.3251C62.4708 98.0199 61.8546 98.141 61.187 97.7545C60.3654 97.2861 60.0968 96.603 60.3615 95.6544C60.6351 94.8801 60.9941 94.1379 61.4319 93.4412C62.5577 91.3294 64.0351 89.4518 65.382 87.4767C66.3589 86.1021 66.9006 84.4718 66.9384 82.7925C66.9518 82.6247 66.9308 82.4558 66.8765 82.2962C66.8222 82.1366 66.7359 81.9895 66.6226 81.8637C66.5093 81.7379 66.3715 81.636 66.2173 81.5642C66.0632 81.4924 65.896 81.4521 65.7257 81.4458C65.145 81.4146 64.7816 81.801 64.4498 82.2031C59.0698 88.7687 53.5673 95.2407 48.3058 101.9C47.2274 103.266 46.0305 104.55 45.1931 106.088C44.4426 107.478 44.8455 108.352 46.3781 108.821C47.1386 109.02 47.922 109.121 48.7087 109.121C49.3367 109.149 49.9332 109.27 50.2887 109.844C50.5336 110.234 50.6837 110.644 50.3282 111.073C49.9727 111.503 49.6606 111.709 49.1234 111.463C48.8943 111.371 48.656 111.301 48.4124 111.257C45.0311 110.417 42.5544 111.331 40.5557 114.153C40.0482 114.887 39.5865 115.651 39.1731 116.44C38.474 117.732 37.759 119.013 37.0638 120.305C36.98 120.478 36.8433 120.62 36.6732 120.712C36.5031 120.803 36.3081 120.84 36.1158 120.816C35.7208 120.773 35.7682 120.356 35.7208 120.075C35.4403 118.81 36.0526 117.834 36.7991 116.913C37.2617 116.426 37.6599 115.883 37.9842 115.297C38.1151 115.073 38.1696 114.814 38.1397 114.557C38.1098 114.301 37.9971 114.06 37.8183 113.872C37.6358 113.643 37.3851 113.476 37.1015 113.396C36.818 113.315 36.5159 113.325 36.2382 113.423C35.7911 113.577 35.3752 113.809 35.0097 114.106C33.8682 115.012 32.7187 115.906 31.6087 116.839C31.2137 117.17 31.1189 117.014 30.9846 116.655C30.8506 116.335 30.8167 115.982 30.8871 115.643C30.9575 115.303 31.129 114.993 31.3796 114.75C32.1166 113.939 33.0446 113.319 34.0815 112.947C35.0255 112.592 35.1638 111.987 34.6305 111.151C34.1921 110.464 33.5284 110.292 32.7582 110.371C31.826 110.445 30.9806 110.831 30.1116 111.124C29.8277 111.23 29.5224 111.269 29.2204 111.237C28.9185 111.205 28.6284 111.104 28.3736 110.94C28.105 110.776 28.0852 110.648 28.3459 110.46C28.9916 109.978 29.7119 109.603 30.479 109.348C32.454 108.715 34.4923 108.915 36.4989 109.18C39.3074 109.547 41.7407 109.032 43.4511 106.576C45.5012 103.633 47.6343 100.741 49.4157 97.6218C51.4856 93.9955 52.9945 90.1701 53.0103 85.966C53.0103 83.3468 53.9742 81.235 55.6292 79.3106C56.8143 77.921 58.1178 76.6172 59.2752 75.1964C59.6702 74.7319 59.5398 74.5406 59.0895 74.2674C58.5368 73.9197 57.9031 73.7179 57.2489 73.681C56.5948 73.6441 55.942 73.7734 55.3527 74.0566C52.7165 75.114 50.3046 76.6513 48.2426 78.5885C45.5723 81.1648 43.6209 84.2485 41.7841 87.4142C39.5286 91.3177 37.3363 95.2212 34.512 98.7772C31.4902 102.567 27.8719 105.573 23.2424 107.279C21.9962 107.765 20.7012 108.118 19.3792 108.333C19.3697 108.268 19.3697 108.202 19.3792 108.138C19.4858 107.845 19.5885 107.552 19.707 107.263C21.1251 103.824 23.5347 101.127 26.2721 98.6757C28.816 96.3844 31.5692 94.3273 33.9709 91.8798C35.2376 90.6281 36.3501 89.2327 37.285 87.7226C36.9295 87.8124 36.6767 87.8748 36.4278 87.949C34.0341 88.6321 31.8734 89.811 29.7126 91.0093C27.465 92.2623 25.2411 93.5661 22.8118 94.46C21.0279 95.1435 19.1421 95.5313 17.2303 95.6076C18.0642 94.1606 19.1976 92.9037 20.5563 91.9188C23.6176 89.6782 27.0108 87.988 30.3881 86.2783C31.348 85.7943 32.3632 85.3688 33.1532 84.6154C33.884 83.9167 34.0064 83.3624 33.6272 82.5974C33.4749 82.2222 33.1928 81.9126 32.8311 81.7239C32.4693 81.5352 32.0515 81.4795 31.6521 81.5668C31.183 81.6242 30.7281 81.7644 30.3091 81.9806C28.36 82.9358 26.3363 83.7347 24.2576 84.3695C22.4919 84.9511 20.8447 85.8489 19.0395 86.3213C17.611 86.7479 16.1077 86.8729 14.6272 86.6882C14.758 86.3855 14.9598 86.118 15.2158 85.9075C17.074 84.0235 19.3157 82.5507 21.7927 81.5864C24.2282 80.5198 26.736 79.6224 29.2979 78.9008C30.4079 78.6119 30.8147 78.0186 30.6804 77.234C30.5145 76.2425 29.8312 75.696 28.737 75.6726C28.0848 75.6682 27.4351 75.751 26.8054 75.9185C23.4162 76.6992 20.0626 77.6634 16.5667 77.9054C14.5685 78.0505 12.5596 77.9191 10.5981 77.515C11.6474 76.6432 12.8535 75.9745 14.1532 75.5438C16.0572 74.8958 18.0638 74.728 20.0231 74.3454C21.9823 73.9629 23.8704 73.6701 25.7862 73.2876C26.5407 73.1353 26.8251 72.7021 26.7817 72.0736C26.7303 71.3788 26.2682 71.1524 25.648 71.0704C24.1786 70.8792 22.7091 70.6801 21.2397 70.4693C17.728 69.9462 14.2125 69.4544 10.7324 68.7361C9.93768 68.5957 9.17915 68.3004 8.501 67.8675C7.82284 67.4346 7.23862 66.8727 6.78232 66.2145C8.75643 65.9127 10.759 65.8355 12.7509 65.9842C15.6463 66.1364 18.5299 66.5346 21.4411 66.4643C23.072 66.4475 24.6935 66.2191 26.2642 65.7851C25.8692 65.5821 25.6203 65.4299 25.3438 65.2894C22.1561 63.6812 18.759 62.5921 15.4054 61.3859C11.6804 60.0509 8.0266 58.5793 4.81122 56.2216C3.90131 55.5873 3.05715 54.8655 2.29106 54.0669C3.78466 54.0766 5.26726 54.3203 6.68357 54.7891C10.7324 56.1787 14.5443 58.1343 18.5062 59.7387C19.6241 60.1915 20.6827 60.8004 21.9152 60.937C22.4585 60.981 22.9998 60.8316 23.4416 60.516C23.8834 60.2004 24.1966 59.7392 24.3247 59.2156C24.538 58.4622 24.1391 57.8416 23.0962 57.3263C22.8169 57.1847 22.5262 57.0659 22.2272 56.9711C21.0422 56.6276 19.8572 56.3387 18.6721 55.964C14.2204 54.5353 10.5231 51.959 7.38669 48.5786C3.68544 44.6088 1.24823 40.0613 0.323911 34.7604C0.217258 34.1436 0.292307 33.4956 0 32.9101V30.2402Z" fill="url(#paint0_linear_35_1751)"/>
<path d="M170.591 75V28.4545H188.045C191.621 28.4545 194.621 29.1212 197.045 30.4545C199.485 31.7879 201.326 33.6212 202.568 35.9545C203.826 38.2727 204.455 40.9091 204.455 43.8636C204.455 46.8485 203.826 49.5 202.568 51.8182C201.311 54.1364 199.455 55.9621 197 57.2955C194.545 58.6136 191.523 59.2727 187.932 59.2727H176.364V52.3409H186.795C188.886 52.3409 190.598 51.9773 191.932 51.25C193.265 50.5227 194.25 49.5227 194.886 48.25C195.538 46.9773 195.864 45.5152 195.864 43.8636C195.864 42.2121 195.538 40.7576 194.886 39.5C194.25 38.2424 193.258 37.2652 191.909 36.5682C190.576 35.8561 188.856 35.5 186.75 35.5H179.023V75H170.591ZM211.778 75V28.4545H229.233C232.809 28.4545 235.809 29.0758 238.233 30.3182C240.672 31.5606 242.513 33.303 243.756 35.5455C245.013 37.7727 245.642 40.3712 245.642 43.3409C245.642 46.3258 245.006 48.9167 243.733 51.1136C242.475 53.2955 240.619 54.9848 238.165 56.1818C235.71 57.3636 232.695 57.9545 229.119 57.9545H216.688V50.9545H227.983C230.074 50.9545 231.786 50.6667 233.119 50.0909C234.453 49.5 235.438 48.6439 236.074 47.5227C236.725 46.3864 237.051 44.9924 237.051 43.3409C237.051 41.6894 236.725 40.2803 236.074 39.1136C235.422 37.9318 234.43 37.0379 233.097 36.4318C231.763 35.8106 230.044 35.5 227.938 35.5H220.21V75H211.778ZM235.824 53.9091L247.347 75H237.938L226.619 53.9091H235.824ZM261.835 28.4545V75H253.403V28.4545H261.835ZM277.193 28.4545L289.307 65.0909H289.784L301.875 28.4545H311.148L294.739 75H284.33L267.943 28.4545H277.193ZM317.818 75H308.818L325.205 28.4545H335.614L352.023 75H343.023L330.591 38H330.227L317.818 75ZM318.114 56.75H342.659V63.5227H318.114V56.75ZM350.483 35.5227V28.4545H387.619V35.5227H373.233V75H364.869V35.5227H350.483ZM403.21 28.4545V75H394.778V28.4545H403.21ZM437.636 41.25C437.424 39.2652 436.53 37.7197 434.955 36.6136C433.394 35.5076 431.364 34.9545 428.864 34.9545C427.106 34.9545 425.598 35.2197 424.341 35.75C423.083 36.2803 422.121 37 421.455 37.9091C420.788 38.8182 420.447 39.8561 420.432 41.0227C420.432 41.9924 420.652 42.8333 421.091 43.5455C421.545 44.2576 422.159 44.8636 422.932 45.3636C423.705 45.8485 424.561 46.2576 425.5 46.5909C426.439 46.9242 427.386 47.2045 428.341 47.4318L432.705 48.5227C434.462 48.9318 436.152 49.4848 437.773 50.1818C439.409 50.8788 440.871 51.7576 442.159 52.8182C443.462 53.8788 444.492 55.1591 445.25 56.6591C446.008 58.1591 446.386 59.9167 446.386 61.9318C446.386 64.6591 445.689 67.0606 444.295 69.1364C442.902 71.197 440.886 72.8106 438.25 73.9773C435.629 75.1288 432.455 75.7045 428.727 75.7045C425.106 75.7045 421.962 75.1439 419.295 74.0227C416.644 72.9015 414.568 71.2652 413.068 69.1136C411.583 66.9621 410.78 64.3409 410.659 61.25H418.955C419.076 62.8712 419.576 64.2197 420.455 65.2955C421.333 66.3712 422.477 67.1742 423.886 67.7045C425.311 68.2348 426.902 68.5 428.659 68.5C430.492 68.5 432.098 68.2273 433.477 67.6818C434.871 67.1212 435.962 66.3485 436.75 65.3636C437.538 64.3636 437.939 63.197 437.955 61.8636C437.939 60.6515 437.583 59.6515 436.886 58.8636C436.189 58.0606 435.212 57.3939 433.955 56.8636C432.712 56.3182 431.258 55.8333 429.591 55.4091L424.295 54.0455C420.462 53.0606 417.432 51.5682 415.205 49.5682C412.992 47.553 411.886 44.8788 411.886 41.5455C411.886 38.803 412.629 36.4015 414.114 34.3409C415.614 32.2803 417.652 30.6818 420.227 29.5455C422.803 28.3939 425.72 27.8182 428.977 27.8182C432.28 27.8182 435.174 28.3939 437.659 29.5455C440.159 30.6818 442.121 32.2652 443.545 34.2955C444.97 36.3106 445.705 38.6288 445.75 41.25H437.636ZM508.278 43H502.642C502.309 41.3788 501.725 39.9545 500.892 38.7273C500.074 37.5 499.074 36.4697 497.892 35.6364C496.725 34.7879 495.43 34.1515 494.006 33.7273C492.581 33.303 491.097 33.0909 489.551 33.0909C486.733 33.0909 484.18 33.803 481.892 35.2273C479.619 36.6515 477.809 38.75 476.46 41.5227C475.127 44.2955 474.46 47.697 474.46 51.7273C474.46 55.7576 475.127 59.1591 476.46 61.9318C477.809 64.7045 479.619 66.803 481.892 68.2273C484.18 69.6515 486.733 70.3636 489.551 70.3636C491.097 70.3636 492.581 70.1515 494.006 69.7273C495.43 69.303 496.725 68.6742 497.892 67.8409C499.074 66.9924 500.074 65.9545 500.892 64.7273C501.725 63.4848 502.309 62.0606 502.642 60.4545H508.278C507.854 62.8333 507.081 64.9621 505.96 66.8409C504.839 68.7197 503.445 70.3182 501.778 71.6364C500.112 72.9394 498.241 73.9318 496.165 74.6136C494.104 75.2955 491.9 75.6364 489.551 75.6364C485.581 75.6364 482.051 74.6667 478.96 72.7273C475.869 70.7879 473.438 68.0303 471.665 64.4545C469.892 60.8788 469.006 56.6364 469.006 51.7273C469.006 46.8182 469.892 42.5758 471.665 39C473.438 35.4242 475.869 32.6667 478.96 30.7273C482.051 28.7879 485.581 27.8182 489.551 27.8182C491.9 27.8182 494.104 28.1591 496.165 28.8409C498.241 29.5227 500.112 30.5227 501.778 31.8409C503.445 33.1439 504.839 34.7348 505.96 36.6136C507.081 38.4773 507.854 40.6061 508.278 43ZM519.295 75H513.386L530.477 28.4545H536.295L553.386 75H547.477L533.568 35.8182H533.205L519.295 75ZM521.477 56.8182H545.295V61.8182H521.477V56.8182ZM560.636 75V28.4545H576.364C580.015 28.4545 583 29.1136 585.318 30.4318C587.652 31.7348 589.379 33.5 590.5 35.7273C591.621 37.9545 592.182 40.4394 592.182 43.1818C592.182 45.9242 591.621 48.4167 590.5 50.6591C589.394 52.9015 587.682 54.6894 585.364 56.0227C583.045 57.3409 580.076 58 576.455 58H565.182V53H576.273C578.773 53 580.78 52.5682 582.295 51.7045C583.811 50.8409 584.909 49.6742 585.591 48.2045C586.288 46.7197 586.636 45.0455 586.636 43.1818C586.636 41.3182 586.288 39.6515 585.591 38.1818C584.909 36.7121 583.803 35.5606 582.273 34.7273C580.742 33.8788 578.712 33.4545 576.182 33.4545H566.273V75H560.636ZM606.898 28.4545V75H601.261V28.4545H606.898ZM615.653 33.4545V28.4545H650.562V33.4545H635.926V75H630.29V33.4545H615.653ZM655.733 75H649.824L666.915 28.4545H672.733L689.824 75H683.915L670.006 35.8182H669.642L655.733 75ZM657.915 56.8182H681.733V61.8182H657.915V56.8182ZM697.074 75V28.4545H702.71V70H724.347V75H697.074Z" fill="#D4B86F"/>
<path d="M177.511 94.7273V118H173.295V94.7273H177.511ZM249.202 94.7273V118H245.452L234.486 102.148H234.293V118H230.077V94.7273H233.849L244.804 110.591H245.009V94.7273H249.202ZM304.909 94.7273L310.966 113.045H311.205L317.25 94.7273H321.886L313.682 118H308.477L300.284 94.7273H304.909ZM372.952 118V94.7273H388.088V98.2614H377.168V104.58H387.304V108.114H377.168V114.466H388.179V118H372.952ZM453.037 101.125C452.931 100.133 452.484 99.3598 451.696 98.8068C450.916 98.2538 449.901 97.9773 448.651 97.9773C447.772 97.9773 447.018 98.1098 446.389 98.375C445.76 98.6402 445.279 99 444.946 99.4545C444.613 99.9091 444.442 100.428 444.435 101.011C444.435 101.496 444.545 101.917 444.764 102.273C444.991 102.629 445.298 102.932 445.685 103.182C446.071 103.424 446.499 103.629 446.969 103.795C447.438 103.962 447.912 104.102 448.389 104.216L450.571 104.761C451.45 104.966 452.295 105.242 453.105 105.591C453.923 105.939 454.654 106.379 455.298 106.909C455.95 107.439 456.465 108.08 456.844 108.83C457.223 109.58 457.412 110.458 457.412 111.466C457.412 112.83 457.063 114.03 456.366 115.068C455.67 116.098 454.662 116.905 453.344 117.489C452.033 118.064 450.446 118.352 448.582 118.352C446.772 118.352 445.2 118.072 443.866 117.511C442.541 116.951 441.503 116.133 440.753 115.057C440.01 113.981 439.609 112.67 439.548 111.125H443.696C443.757 111.936 444.007 112.61 444.446 113.148C444.885 113.686 445.457 114.087 446.162 114.352C446.874 114.617 447.67 114.75 448.548 114.75C449.465 114.75 450.268 114.614 450.957 114.341C451.654 114.061 452.2 113.674 452.594 113.182C452.988 112.682 453.188 112.098 453.196 111.432C453.188 110.826 453.01 110.326 452.662 109.932C452.313 109.53 451.825 109.197 451.196 108.932C450.575 108.659 449.848 108.417 449.014 108.205L446.366 107.523C444.45 107.03 442.935 106.284 441.821 105.284C440.715 104.277 440.162 102.939 440.162 101.273C440.162 99.9015 440.533 98.7008 441.276 97.6705C442.026 96.6402 443.045 95.8409 444.332 95.2727C445.62 94.697 447.079 94.4091 448.707 94.4091C450.359 94.4091 451.806 94.697 453.048 95.2727C454.298 95.8409 455.279 96.6326 455.991 97.6477C456.704 98.6553 457.071 99.8144 457.094 101.125H453.037ZM508.148 98.2614V94.7273H526.716V98.2614H519.523V118H515.341V98.2614H508.148Z" fill="white"/>
<defs>
<linearGradient id="paint0_linear_35_1751" x1="99.1088" y1="8.86116" x2="41.635" y2="121.046" gradientUnits="userSpaceOnUse">
<stop stop-color="#E8CE88"/>
<stop offset="1" stop-color="#A78638"/>
</linearGradient>
</defs>
</svg>
